<?xml version="1.0" standalone="no"?>
<!DOCTYPE svg PUBLIC "-//W3C//DTD SVG 20010904//EN"
 "http://www.w3.org/TR/2001/REC-SVG-20010904/DTD/svg10.dtd">
<svg version="1.0" xmlns="http://www.w3.org/2000/svg"
 width="1440.000000pt" height="1440.000000pt" viewBox="0 0 1440.000000 1440.000000"
 preserveAspectRatio="xMidYMid meet">

<g transform="translate(0.000000,1440.000000) scale(0.100000,-0.100000)"
fill="#000000" stroke="none">
<path d="M4905 8080 c-141 -31 -269 -90 -375 -173 -88 -70 -114 -98 -98 -109
9 -5 5 -7 -11 -6 -13 2 -25 -1 -27 -7 -3 -6 68 -11 196 -12 185 -2 201 0 213
17 7 10 25 24 39 31 23 10 32 9 60 -8 29 -17 33 -25 36 -67 3 -39 -1 -53 -19
-72 -28 -30 -72 -31 -99 -4 -19 19 -33 20 -260 20 l-239 0 -40 -67 c-41 -71
-110 -257 -99 -268 3 -4 251 -9 550 -11 l545 -5 50 46 51 45 100 0 c110 0 136
6 175 43 74 68 54 183 -40 231 -25 13 -64 16 -180 16 l-148 0 -35 36 c-19 20
-53 52 -76 70 l-40 33 -202 2 c-218 2 -226 4 -220 54 l3 27 217 5 217 6 75
-70 c86 -80 94 -83 257 -83 152 0 196 -19 258 -111 31 -44 35 -58 35 -113 0
-50 -6 -72 -27 -109 -53 -90 -110 -117 -246 -117 l-96 0 -43 -40 -42 -40 -575
0 -575 0 0 -55 0 -55 563 0 563 0 54 -55 54 -55 105 0 c127 0 168 -17 224 -92
34 -47 37 -56 37 -117 0 -56 -5 -74 -28 -112 -61 -95 -130 -121 -312 -118 -58
1 -110 1 -115 0 -6 0 -42 -30 -80 -66 l-70 -64 -223 -1 -223 0 3 38 3 37 200
-2 200 -2 78 69 78 70 150 0 c160 0 183 5 227 53 51 54 46 141 -12 194 l-36
33 -111 0 -112 0 -58 55 -58 55 -547 0 -547 0 6 -60 c4 -33 11 -68 16 -77 5
-10 21 -50 36 -88 47 -125 23 -116 306 -121 238 -5 245 -5 263 15 23 25 82 28
114 5 27 -19 31 -87 6 -122 -20 -28 -81 -30 -115 -3 -21 16 -51 19 -236 26
-142 5 -213 4 -213 -3 0 -15 133 -136 196 -177 74 -49 203 -108 289 -131 57
-16 104 -19 255 -19 213 0 253 9 430 94 116 55 254 175 327 284 26 40 51 74
54 77 24 21 75 157 99 266 25 113 25 197 0 315 -47 228 -136 370 -335 539 -60
50 -212 134 -265 145 -19 4 -39 10 -45 13 -5 4 -48 15 -95 24 -107 22 -258 21
-365 -2z m257 -441 c36 -28 40 -29 150 -29 107 0 114 2 137 25 51 54 141 14
141 -63 0 -68 -81 -112 -128 -69 -25 23 -262 25 -262 3 0 -23 -65 -73 -105
-80 -38 -8 -74 7 -105 44 -13 15 -44 18 -261 24 -236 5 -246 5 -267 -14 -50
-46 -132 -9 -132 59 0 42 7 54 37 70 32 16 57 14 86 -9 24 -19 40 -20 266 -20
201 0 241 2 241 14 0 17 66 71 95 79 33 8 68 -3 107 -34z m597 -349 c22 -22
42 -50 43 -62 2 -41 -4 -83 -14 -95 -5 -7 -6 -18 -2 -24 4 -7 3 -9 -3 -6 -5 3
-22 -3 -39 -14 -83 -54 -194 15 -194 122 0 37 6 51 34 82 30 33 39 37 84 37
44 0 54 -4 91 -40z m-1534 -50 c-9 -14 8 -12 24 3 11 10 13 10 7 0 -8 -15 10
-18 19 -3 3 6 24 10 46 10 29 0 39 -4 39 -16 0 -11 -6 -14 -20 -9 -13 4 -20 2
-20 -6 0 -8 -7 -5 -20 6 -19 18 -20 17 -20 -3 0 -19 -6 -22 -40 -22 -24 0 -40
-5 -40 -12 0 -24 -14 4 -16 32 -2 26 2 30 23 30 13 0 21 -4 18 -10z m378 3
c-24 -2 -43 -8 -43 -14 0 -5 -9 -9 -20 -9 -11 0 -20 4 -20 10 0 5 -28 11 -62
13 -35 2 -7 3 62 3 69 0 106 -1 83 -3z m150 0 c-7 -2 -19 -2 -25 0 -7 3 -2 5
12 5 14 0 19 -2 13 -5z m200 0 c-7 -2 -19 -2 -25 0 -7 3 -2 5 12 5 14 0 19 -2
13 -5z m84 -9 c-3 -3 -12 -4 -19 -1 -8 3 -5 6 6 6 11 1 17 -2 13 -5z m-324
-171 c-7 -2 -19 -2 -25 0 -7 3 -2 5 12 5 14 0 19 -2 13 -5z m542 -3 c3 -5 1
-10 -4 -10 -6 0 -11 5 -11 10 0 6 2 10 4 10 3 0 8 -4 11 -10z m-104 -97 c15
-9 33 -29 40 -45 l11 -28 124 0 c68 0 124 4 124 9 0 15 56 32 83 26 34 -9 53
-31 66 -79 5 -21 8 -36 4 -33 -3 3 -16 -7 -30 -24 -32 -38 -79 -40 -113 -4
-22 24 -29 25 -138 25 l-114 0 -40 -40 c-54 -54 -95 -61 -149 -25 -23 15 -46
40 -52 56 l-11 29 -247 0 c-207 0 -249 -2 -259 -15 -18 -21 -63 -19 -94 6 -31
24 -36 81 -9 111 22 25 98 25 112 1 9 -16 32 -18 262 -17 210 0 253 3 263 15
37 49 113 64 167 32z m509 -68 c11 -13 10 -14 -4 -9 -9 3 -16 10 -16 15 0 13
6 11 20 -6z"/>
<path d="M5096 7543 c-6 -14 -5 -15 5 -6 7 7 10 15 7 18 -3 3 -9 -2 -12 -12z"/>
<path d="M5654 7219 c-15 -17 -16 -21 -3 -33 10 -10 21 -11 37 -5 27 10 29 35
3 48 -14 8 -23 6 -37 -10z m36 -22 c0 -5 -4 -5 -10 -2 -5 3 -10 14 -10 23 0
15 2 15 10 2 5 -8 10 -19 10 -23z"/>
<path d="M5067 6873 c-22 -6 -19 -32 6 -47 24 -14 53 19 36 41 -6 7 -14 12
-18 12 -3 -1 -14 -3 -24 -6z m23 -23 c0 -5 -5 -10 -11 -10 -5 0 -7 5 -4 10 3
6 8 10 11 10 2 0 4 -4 4 -10z"/>
<path d="M8629 8047 c-20 -13 -46 -47 -64 -82 -17 -33 -49 -94 -72 -135 -22
-41 -84 -160 -138 -265 -54 -104 -101 -194 -105 -200 -4 -5 -44 -82 -90 -170
-46 -88 -86 -164 -90 -170 -10 -14 -134 -253 -214 -412 -36 -72 -66 -143 -66
-157 0 -38 29 -91 60 -110 16 -9 48 -16 73 -16 62 0 95 30 148 133 23 45 58
114 79 152 20 39 61 115 90 170 29 55 65 123 80 150 15 28 62 118 105 200 43
83 81 155 85 160 4 6 45 83 90 173 45 89 86 162 90 162 5 0 50 -82 100 -182
51 -101 112 -219 135 -263 23 -44 63 -118 87 -165 25 -47 85 -161 133 -255
186 -361 207 -398 228 -416 28 -23 106 -25 147 -4 32 16 70 80 70 116 0 19
-40 100 -218 439 -24 47 -80 155 -124 240 -89 171 -175 337 -263 505 -32 61
-89 171 -127 245 -73 145 -105 180 -164 180 -17 0 -46 -10 -65 -23z"/>
<path d="M9802 8050 c-65 -40 -63 -9 -60 -875 l3 -785 32 -31 c27 -28 38 -32
86 -32 62 0 99 21 119 68 20 47 19 1571 -1 1609 -33 62 -118 83 -179 46z"/>
<path d="M11011 8052 c-25 -14 -45 -41 -85 -117 -28 -55 -75 -144 -104 -197
-80 -151 -142 -269 -227 -433 -43 -82 -97 -186 -120 -230 -23 -44 -80 -152
-125 -240 -46 -88 -86 -164 -90 -170 -20 -28 -84 -153 -91 -179 -12 -43 6
-100 42 -130 24 -21 41 -26 83 -26 69 0 100 28 164 150 27 52 63 120 79 150
36 66 116 217 191 360 80 154 172 330 242 460 34 63 67 127 73 143 6 15 16 27
22 27 6 0 43 -64 84 -142 142 -275 204 -394 251 -483 26 -49 98 -189 161 -310
181 -353 182 -354 266 -355 61 0 105 30 123 85 16 47 6 84 -48 185 -110 208
-147 279 -257 495 -65 127 -134 262 -155 300 -53 101 -238 456 -285 550 -59
117 -116 149 -194 107z"/>
<path d="M2795 8040 c-66 -14 -165 -71 -225 -130 -178 -177 -198 -467 -47
-665 60 -77 124 -125 217 -162 39 -15 93 -18 405 -23 349 -5 361 -6 402 -27
81 -44 143 -134 143 -209 0 -45 -41 -132 -76 -163 -74 -66 -64 -65 -566 -71
l-458 -5 -31 -31 c-65 -65 -44 -174 40 -207 33 -14 97 -15 477 -11 251 3 460
10 489 16 86 18 156 58 226 127 223 224 185 587 -79 758 -104 67 -100 67 -502
73 l-365 5 -52 33 c-173 110 -158 347 27 431 30 14 101 17 487 21 l451 5 26
24 c53 50 53 142 0 192 l-26 24 -461 2 c-254 0 -480 -3 -502 -7z"/>
<path d="M6314 8040 c-12 -4 -31 -21 -44 -37 -18 -23 -21 -37 -18 -86 4 -46
10 -63 31 -85 l27 -27 458 -5 457 -5 55 -26 c86 -40 150 -141 150 -236 0 -88
-72 -194 -160 -236 -41 -20 -64 -22 -267 -25 l-222 -4 -36 -31 c-42 -37 -57
-96 -34 -140 8 -14 66 -79 129 -144 63 -65 139 -145 168 -178 79 -89 309 -333
369 -392 48 -49 56 -53 99 -53 57 0 96 22 123 70 25 45 27 87 4 120 -21 31
-295 329 -395 431 -50 50 -50 69 1 69 54 0 153 33 220 74 125 77 216 212 241
358 11 66 10 90 -3 170 -32 186 -137 319 -317 399 l-55 24 -480 2 c-264 1
-490 -2 -501 -7z"/>
<path d="M6321 7308 c-13 -7 -34 -26 -45 -41 -20 -28 -21 -40 -24 -425 -2
-264 0 -409 8 -434 15 -54 51 -78 116 -78 64 0 108 31 124 88 12 46 13 751 0
806 -13 57 -46 85 -105 92 -32 3 -59 0 -74 -8z"/>
<path d="M8623 6971 c-41 -10 -94 -51 -125 -93 -20 -28 -23 -45 -23 -118 0
-54 5 -91 13 -100 7 -8 22 -27 33 -43 11 -15 35 -35 52 -44 18 -9 35 -21 39
-27 4 -6 8 -56 8 -112 0 -87 3 -103 20 -122 34 -36 81 -27 105 19 10 19 15 60
15 128 0 99 0 101 25 107 14 3 45 28 70 56 48 54 63 105 51 179 -19 121 -155
203 -283 170z"/>
<path d="M10994 6969 c-49 -11 -109 -65 -132 -118 -8 -20 -15 -64 -15 -97 1
-81 29 -133 101 -180 l53 -36 -3 -105 c-3 -100 -2 -106 21 -124 29 -24 53 -24
82 0 22 18 24 28 27 129 l4 110 42 27 c52 33 85 81 103 148 11 44 11 59 -2
102 -19 67 -72 120 -138 140 -56 17 -82 17 -143 4z"/>
</g>
</svg>
