<?xml version="1.0" standalone="no"?>
<!DOCTYPE svg PUBLIC "-//W3C//DTD SVG 20010904//EN"
 "http://www.w3.org/TR/2001/REC-SVG-20010904/DTD/svg10.dtd">
<svg version="1.0" xmlns="http://www.w3.org/2000/svg"
 width="364.000000pt" height="95.000000pt" viewBox="0 0 364.000000 95.000000"
 preserveAspectRatio="xMidYMid meet">

<g transform="translate(0.000000,95.000000) scale(0.100000,-0.100000)"
fill="#000000" stroke="none">
<path d="M1061 762 c-7 -5 -22 -7 -34 -4 -13 3 -18 1 -14 -5 5 -7 -1 -9 -15
-5 -16 4 -19 2 -13 -8 5 -9 4 -11 -4 -6 -11 7 -60 -22 -92 -54 -15 -15 -11
-16 44 -18 32 -2 65 2 73 9 32 27 68 -14 44 -51 -8 -12 -13 -13 -29 -3 -12 8
-53 12 -100 12 l-80 -1 -16 -34 c-9 -19 -13 -39 -9 -46 4 -7 3 -8 -4 -4 -7 4
-12 1 -12 -8 0 -9 8 -16 18 -17 9 0 94 -1 187 -2 140 -2 173 1 185 13 9 9 34
15 59 16 47 0 74 23 64 52 -10 31 -36 42 -94 42 -41 0 -58 4 -63 15 -3 8 -12
15 -21 15 -8 0 -15 5 -15 11 0 6 -24 10 -62 9 -87 -2 -88 -2 -88 15 0 12 16
15 83 15 74 0 85 -3 109 -25 22 -20 37 -25 82 -25 30 0 58 -5 61 -10 4 -6 10
-8 14 -5 4 2 14 -12 20 -33 14 -42 2 -88 -24 -99 -13 -4 -9 -10 14 -24 36 -22
40 -48 10 -75 -19 -17 -23 -17 -47 -3 -32 17 -39 50 -17 73 15 15 14 16 -17
16 -18 0 -43 -7 -54 -15 -16 -11 -62 -15 -197 -16 -125 -1 -174 -5 -170 -13 3
-6 0 -5 -8 2 -15 14 -33 16 -25 3 4 -5 0 -12 -6 -14 -7 -3 75 -6 183 -6 181
-1 198 -3 219 -21 14 -12 37 -20 59 -20 70 0 106 -53 77 -112 -9 -17 -14 -33
-12 -37 3 -4 -30 -8 -72 -10 -69 -2 -79 -5 -103 -31 -15 -15 -30 -26 -33 -23
-3 3 -36 6 -73 7 -53 1 -68 4 -68 16 0 12 17 16 77 18 68 2 79 6 97 27 16 21
28 25 70 25 28 0 51 4 51 8 0 9 -2 10 -73 18 -38 5 -52 2 -68 -12 -16 -14 -24
-15 -44 -6 -14 6 -25 17 -25 23 0 8 -32 10 -107 8 -99 -4 -108 -2 -111 15 -6
28 10 37 46 27 18 -5 32 -6 32 -2 0 4 26 4 58 0 44 -5 68 -2 105 13 27 10 46
14 42 9 -11 -18 31 -30 93 -26 49 2 62 0 62 -12 0 -8 5 -11 11 -8 6 4 5 -2 -2
-13 -15 -24 -5 -42 13 -24 8 8 9 20 2 39 -8 25 -14 28 -54 28 -34 0 -49 5 -62
21 -17 20 -27 22 -185 22 -93 0 -176 -2 -185 -4 -22 -6 -23 -33 -3 -79 l14
-35 116 3 115 4 0 -24 c0 -28 -25 -41 -51 -25 -10 7 -49 12 -86 12 l-66 0 24
-26 c13 -15 52 -40 87 -56 51 -23 77 -29 135 -29 104 -1 172 27 235 96 60 65
82 110 89 180 6 56 -13 149 -28 140 -4 -3 -11 0 -15 6 -4 8 -3 9 4 5 18 -11
15 2 -9 40 -24 39 -77 83 -137 113 -47 24 -159 38 -181 23z m-117 -61 c3 -5
-2 -15 -12 -22 -15 -12 -16 -12 -5 2 7 9 10 19 6 22 -3 4 -4 7 0 7 3 0 8 -4
11 -9z m182 -81 c10 -10 59 -13 120 -6 39 4 40 4 36 -24 -4 -28 -36 -48 -48
-29 -9 15 -80 10 -94 -6 -15 -18 -56 -20 -66 -4 -4 8 -43 10 -118 8 l-111 -4
0 25 c0 22 4 25 35 23 158 -9 165 -8 189 9 27 20 43 22 57 8z m-209 -156 c-3
-3 -12 -4 -19 -1 -8 3 -5 6 6 6 11 1 17 -2 13 -5z m243 -74 c0 -5 -5 -10 -11
-10 -5 0 -7 5 -4 10 3 6 8 10 11 10 2 0 4 -4 4 -10z"/>
<path d="M303 749 c-64 -19 -123 -103 -123 -174 1 -38 38 -102 76 -131 36 -28
42 -29 182 -34 136 -5 145 -6 163 -29 26 -32 24 -77 -6 -106 -24 -25 -27 -25
-188 -25 -171 0 -187 -4 -187 -45 0 -41 16 -45 190 -45 152 0 168 2 205 23 58
33 85 78 85 144 0 65 -18 103 -67 140 -35 27 -42 28 -179 33 -121 4 -145 8
-163 24 -27 25 -28 85 -2 117 18 23 25 24 191 29 168 5 173 6 181 28 6 17 4
27 -11 42 -18 18 -33 20 -167 19 -82 0 -163 -5 -180 -10z"/>
<path d="M1527 745 c-20 -19 -21 -29 -7 -56 10 -18 23 -19 176 -19 l166 0 29
-29 c33 -33 37 -67 14 -111 -18 -35 -68 -51 -149 -49 -57 2 -86 -11 -86 -39 0
-26 243 -282 269 -282 23 0 41 20 41 45 0 11 -34 55 -75 100 -41 44 -75 83
-75 86 0 4 16 10 36 13 41 8 106 64 124 106 20 48 8 132 -24 174 -48 64 -71
70 -257 74 -144 3 -168 1 -182 -13z"/>
<path d="M2333 748 c-6 -7 -50 -87 -99 -178 -178 -335 -187 -355 -180 -384 5
-19 13 -26 30 -26 25 0 45 19 68 65 72 148 203 384 209 378 7 -7 49 -88 183
-346 45 -87 54 -97 78 -97 42 0 54 32 30 78 -10 20 -65 127 -123 237 -57 110
-112 218 -124 240 -21 42 -53 56 -72 33z"/>
<path d="M2730 741 c-13 -25 -14 -520 0 -555 10 -28 47 -35 68 -14 17 17 17
559 0 576 -18 18 -56 14 -68 -7z"/>
<path d="M3137 718 c-21 -38 -179 -340 -245 -470 -27 -54 -19 -88 22 -88 30 0
30 0 111 155 114 217 147 280 154 287 4 4 59 -92 122 -215 93 -179 120 -223
138 -225 12 -2 29 2 37 8 16 14 19 51 5 66 -8 9 -183 344 -229 439 -47 98 -76
109 -115 43z"/>
<path d="M1520 480 c-13 -25 -12 -278 1 -303 15 -28 58 -22 70 10 12 33 10
271 -2 296 -13 23 -56 22 -69 -3z"/>
<path d="M2306 361 c-30 -33 -29 -67 3 -103 19 -22 27 -42 26 -59 -4 -33 9
-54 29 -46 11 4 16 19 16 43 0 26 7 43 25 60 34 31 33 76 -1 103 -33 26 -76
27 -98 2z"/>
<path d="M3132 360 c-30 -29 -27 -85 7 -111 20 -16 24 -27 23 -59 -2 -34 0
-40 18 -40 17 0 20 6 20 43 0 31 5 46 19 57 11 7 18 17 15 22 -3 4 0 8 5 8 6
0 11 14 11 30 0 61 -73 92 -118 50z"/>
</g>
</svg>
